<mxfile host="app.diagrams.net" modified="2023-11-06T15:40:54.607Z" agent="Mozilla/5.0 (Macintosh; Intel Mac OS X 10_15_7) AppleWebKit/537.36 (KHTML, like Gecko) Chrome/118.0.0.0 Safari/537.36" version="22.0.8" etag="oyGTo_oEdtFsdZrQjEGN" type="device">
  <diagram id="hG-zOUj_tjsUFQA9lG5d" name="Trang-1">
    <mxGraphModel dx="1194" dy="790" grid="1" gridSize="10" guides="1" tooltips="1" connect="1" arrows="1" fold="1" page="1" pageScale="1" pageWidth="827" pageHeight="1169" math="0" shadow="0">
      <root>
        <mxCell id="0" />
        <mxCell id="1" parent="0" />
        <mxCell id="EnIvtFHSQjP1D_iGzH72-11" style="edgeStyle=orthogonalEdgeStyle;rounded=0;orthogonalLoop=1;jettySize=auto;html=1;exitX=0.5;exitY=1;exitDx=0;exitDy=0;entryX=0.5;entryY=0;entryDx=0;entryDy=0;" edge="1" parent="1" source="EnIvtFHSQjP1D_iGzH72-1" target="EnIvtFHSQjP1D_iGzH72-2">
          <mxGeometry relative="1" as="geometry" />
        </mxCell>
        <mxCell id="EnIvtFHSQjP1D_iGzH72-1" value="Start" style="ellipse;whiteSpace=wrap;html=1;" vertex="1" parent="1">
          <mxGeometry x="330" y="60" width="120" height="80" as="geometry" />
        </mxCell>
        <mxCell id="EnIvtFHSQjP1D_iGzH72-10" style="edgeStyle=orthogonalEdgeStyle;rounded=0;orthogonalLoop=1;jettySize=auto;html=1;entryX=0.5;entryY=0;entryDx=0;entryDy=0;" edge="1" parent="1" source="EnIvtFHSQjP1D_iGzH72-2" target="EnIvtFHSQjP1D_iGzH72-3">
          <mxGeometry relative="1" as="geometry" />
        </mxCell>
        <mxCell id="EnIvtFHSQjP1D_iGzH72-2" value="số có 3 chữ số abc" style="shape=parallelogram;perimeter=parallelogramPerimeter;whiteSpace=wrap;html=1;fixedSize=1;" vertex="1" parent="1">
          <mxGeometry x="320" y="190" width="140" height="60" as="geometry" />
        </mxCell>
        <mxCell id="EnIvtFHSQjP1D_iGzH72-8" style="edgeStyle=orthogonalEdgeStyle;rounded=0;orthogonalLoop=1;jettySize=auto;html=1;exitX=0.5;exitY=1;exitDx=0;exitDy=0;" edge="1" parent="1" source="EnIvtFHSQjP1D_iGzH72-3" target="EnIvtFHSQjP1D_iGzH72-7">
          <mxGeometry relative="1" as="geometry" />
        </mxCell>
        <mxCell id="EnIvtFHSQjP1D_iGzH72-9" style="edgeStyle=orthogonalEdgeStyle;rounded=0;orthogonalLoop=1;jettySize=auto;html=1;exitX=1;exitY=0.5;exitDx=0;exitDy=0;" edge="1" parent="1" source="EnIvtFHSQjP1D_iGzH72-3" target="EnIvtFHSQjP1D_iGzH72-6">
          <mxGeometry relative="1" as="geometry" />
        </mxCell>
        <mxCell id="EnIvtFHSQjP1D_iGzH72-3" value="a = c" style="rhombus;whiteSpace=wrap;html=1;" vertex="1" parent="1">
          <mxGeometry x="350" y="300" width="80" height="80" as="geometry" />
        </mxCell>
        <mxCell id="EnIvtFHSQjP1D_iGzH72-6" value="abc, cba đều được" style="rounded=0;whiteSpace=wrap;html=1;" vertex="1" parent="1">
          <mxGeometry x="530" y="310" width="120" height="60" as="geometry" />
        </mxCell>
        <mxCell id="EnIvtFHSQjP1D_iGzH72-13" style="edgeStyle=orthogonalEdgeStyle;rounded=0;orthogonalLoop=1;jettySize=auto;html=1;" edge="1" parent="1" source="EnIvtFHSQjP1D_iGzH72-7" target="EnIvtFHSQjP1D_iGzH72-12">
          <mxGeometry relative="1" as="geometry" />
        </mxCell>
        <mxCell id="EnIvtFHSQjP1D_iGzH72-7" value="cba" style="rounded=0;whiteSpace=wrap;html=1;" vertex="1" parent="1">
          <mxGeometry x="330" y="460" width="120" height="60" as="geometry" />
        </mxCell>
        <mxCell id="EnIvtFHSQjP1D_iGzH72-20" style="edgeStyle=orthogonalEdgeStyle;rounded=0;orthogonalLoop=1;jettySize=auto;html=1;entryX=0.5;entryY=0;entryDx=0;entryDy=0;" edge="1" parent="1" source="EnIvtFHSQjP1D_iGzH72-12" target="EnIvtFHSQjP1D_iGzH72-19">
          <mxGeometry relative="1" as="geometry" />
        </mxCell>
        <mxCell id="EnIvtFHSQjP1D_iGzH72-12" value="số đảo ngược" style="shape=parallelogram;perimeter=parallelogramPerimeter;whiteSpace=wrap;html=1;fixedSize=1;" vertex="1" parent="1">
          <mxGeometry x="330" y="600" width="120" height="60" as="geometry" />
        </mxCell>
        <mxCell id="EnIvtFHSQjP1D_iGzH72-14" value="" style="endArrow=none;html=1;rounded=0;" edge="1" parent="1">
          <mxGeometry width="50" height="50" relative="1" as="geometry">
            <mxPoint x="590" y="640" as="sourcePoint" />
            <mxPoint x="590" y="370" as="targetPoint" />
          </mxGeometry>
        </mxCell>
        <mxCell id="EnIvtFHSQjP1D_iGzH72-16" value="" style="endArrow=classic;html=1;rounded=0;entryX=1;entryY=0.75;entryDx=0;entryDy=0;" edge="1" parent="1" target="EnIvtFHSQjP1D_iGzH72-12">
          <mxGeometry width="50" height="50" relative="1" as="geometry">
            <mxPoint x="590" y="640" as="sourcePoint" />
            <mxPoint x="640" y="590" as="targetPoint" />
          </mxGeometry>
        </mxCell>
        <mxCell id="EnIvtFHSQjP1D_iGzH72-17" value="Đ" style="text;html=1;align=center;verticalAlign=middle;resizable=0;points=[];autosize=1;strokeColor=none;fillColor=none;" vertex="1" parent="1">
          <mxGeometry x="455" y="318" width="30" height="30" as="geometry" />
        </mxCell>
        <mxCell id="EnIvtFHSQjP1D_iGzH72-18" value="S" style="text;html=1;align=center;verticalAlign=middle;resizable=0;points=[];autosize=1;strokeColor=none;fillColor=none;" vertex="1" parent="1">
          <mxGeometry x="384" y="400" width="30" height="30" as="geometry" />
        </mxCell>
        <mxCell id="EnIvtFHSQjP1D_iGzH72-19" value="end" style="ellipse;whiteSpace=wrap;html=1;" vertex="1" parent="1">
          <mxGeometry x="330" y="740" width="120" height="80" as="geometry" />
        </mxCell>
      </root>
    </mxGraphModel>
  </diagram>
</mxfile>
